<svg width="224" height="224" viewBox="0 0 224 224" fill="none" xmlns="http://www.w3.org/2000/svg">
  <!-- Background with subtle gradient -->
  <defs>
    <linearGradient id="bgGradient" x1="0%" y1="0%" x2="100%" y2="100%">
      <stop offset="0%" style="stop-color:#f8fafc;stop-opacity:1" />
      <stop offset="100%" style="stop-color:#e2e8f0;stop-opacity:1" />
    </linearGradient>
    <linearGradient id="codeGradient" x1="0%" y1="0%" x2="100%" y2="100%">
      <stop offset="0%" style="stop-color:#3b82f6;stop-opacity:1" />
      <stop offset="100%" style="stop-color:#1d4ed8;stop-opacity:1" />
    </linearGradient>
    <linearGradient id="bookGradient" x1="0%" y1="0%" x2="100%" y2="100%">
      <stop offset="0%" style="stop-color:#10b981;stop-opacity:1" />
      <stop offset="100%" style="stop-color:#059669;stop-opacity:1" />
    </linearGradient>
    <linearGradient id="laptopGradient" x1="0%" y1="0%" x2="100%" y2="100%">
      <stop offset="0%" style="stop-color:#6366f1;stop-opacity:1" />
      <stop offset="100%" style="stop-color:#4f46e5;stop-opacity:1" />
    </linearGradient>
  </defs>
  
  <!-- Background -->
  <rect width="224" height="224" rx="16" fill="url(#bgGradient)"/>
  
  <!-- Decorative elements -->
  <circle cx="40" cy="40" r="3" fill="#3b82f6" opacity="0.3"/>
  <circle cx="184" cy="60" r="2" fill="#10b981" opacity="0.4"/>
  <circle cx="200" cy="180" r="2.5" fill="#6366f1" opacity="0.3"/>
  <circle cx="20" cy="200" r="2" fill="#f59e0b" opacity="0.4"/>
  
  <!-- Laptop/Computer -->
  <g transform="translate(30, 60)">
    <!-- Laptop base -->
    <rect x="0" y="40" width="80" height="50" rx="4" fill="url(#laptopGradient)" opacity="0.9"/>
    <!-- Laptop screen -->
    <rect x="5" y="5" width="70" height="45" rx="3" fill="#1e293b"/>
    <!-- Screen content - code lines -->
    <rect x="10" y="12" width="40" height="2" rx="1" fill="#10b981" opacity="0.8"/>
    <rect x="10" y="18" width="35" height="2" rx="1" fill="#3b82f6" opacity="0.8"/>
    <rect x="10" y="24" width="45" height="2" rx="1" fill="#f59e0b" opacity="0.8"/>
    <rect x="10" y="30" width="30" height="2" rx="1" fill="#ef4444" opacity="0.8"/>
    <!-- Cursor -->
    <rect x="42" y="30" width="2" height="2" fill="#ffffff"/>
  </g>
  
  <!-- Books stack -->
  <g transform="translate(120, 80)">
    <!-- Book 1 (bottom) -->
    <rect x="0" y="20" width="60" height="8" rx="1" fill="url(#bookGradient)" opacity="0.9"/>
    <rect x="2" y="22" width="56" height="4" rx="0.5" fill="#ffffff" opacity="0.3"/>
    
    <!-- Book 2 (middle) -->
    <rect x="5" y="15" width="60" height="8" rx="1" fill="#3b82f6" opacity="0.9"/>
    <rect x="7" y="17" width="56" height="4" rx="0.5" fill="#ffffff" opacity="0.3"/>
    
    <!-- Book 3 (top) -->
    <rect x="10" y="10" width="60" height="8" rx="1" fill="#f59e0b" opacity="0.9"/>
    <rect x="12" y="12" width="56" height="4" rx="0.5" fill="#ffffff" opacity="0.3"/>
    
    <!-- Book pages effect -->
    <rect x="68" y="10" width="2" height="18" fill="#ffffff" opacity="0.6"/>
  </g>
  
  <!-- Coffee cup -->
  <g transform="translate(50, 140)">
    <ellipse cx="15" cy="20" rx="12" ry="8" fill="#8b5cf6" opacity="0.8"/>
    <rect x="3" y="12" width="24" height="16" rx="2" fill="#8b5cf6" opacity="0.8"/>
    <rect x="5" y="14" width="20" height="12" rx="1" fill="#ffffff" opacity="0.2"/>
    <!-- Steam -->
    <path d="M12 8 Q14 4 12 0 Q10 4 12 8" stroke="#ffffff" stroke-width="1" fill="none" opacity="0.6"/>
    <path d="M18 8 Q20 4 18 0 Q16 4 18 8" stroke="#ffffff" stroke-width="1" fill="none" opacity="0.6"/>
  </g>
  
  <!-- Floating code symbols -->
  <g opacity="0.6">
    <text x="160" y="30" font-family="monospace" font-size="12" fill="#3b82f6">{ }</text>
    <text x="180" y="50" font-family="monospace" font-size="10" fill="#10b981">&lt;/&gt;</text>
    <text x="150" y="200" font-family="monospace" font-size="11" fill="#f59e0b">()</text>
    <text x="170" y="190" font-family="monospace" font-size="9" fill="#8b5cf6">[]</text>
  </g>
  
  <!-- Reading glasses -->
  <g transform="translate(140, 120)">
    <circle cx="0" cy="0" r="8" stroke="#374151" stroke-width="2" fill="none" opacity="0.7"/>
    <circle cx="16" cy="0" r="8" stroke="#374151" stroke-width="2" fill="none" opacity="0.7"/>
    <line x1="8" y1="0" x2="8" y2="0" stroke="#374151" stroke-width="2" opacity="0.7"/>
  </g>
  
  <!-- Light bulb (idea) -->
  <g transform="translate(180, 140)">
    <circle cx="0" cy="0" r="6" fill="#fbbf24" opacity="0.8"/>
    <rect x="-1" y="4" width="2" height="3" fill="#fbbf24" opacity="0.8"/>
    <!-- Light rays -->
    <line x1="-8" y1="-8" x2="-4" y2="-4" stroke="#fbbf24" stroke-width="1" opacity="0.6"/>
    <line x1="8" y1="-8" x2="4" y2="-4" stroke="#fbbf24" stroke-width="1" opacity="0.6"/>
    <line x1="-8" y1="8" x2="-4" y2="4" stroke="#fbbf24" stroke-width="1" opacity="0.6"/>
    <line x1="8" y1="8" x2="4" y2="4" stroke="#fbbf24" stroke-width="1" opacity="0.6"/>
  </g>
</svg>
